<?xml version="1.0" standalone="no"?>
<!DOCTYPE svg PUBLIC "-//W3C//DTD SVG 20010904//EN"
 "http://www.w3.org/TR/2001/REC-SVG-20010904/DTD/svg10.dtd">
<svg version="1.0" xmlns="http://www.w3.org/2000/svg"
 width="512.000000pt" height="512.000000pt" viewBox="0 0 512.000000 512.000000"
 preserveAspectRatio="xMidYMid meet">

<g transform="translate(0.000000,512.000000) scale(0.100000,-0.100000)"
fill="#000000" stroke="none">
<path d="M4245 3590 c-3 -5 -8 -58 -12 -118 -8 -139 4 -149 52 -45 49 104 49
119 3 149 -20 13 -40 20 -43 14z"/>
<path d="M337 3488 c-19 -16 -77 -157 -77 -190 0 -36 19 -48 78 -48 46 0 53
-2 48 -17 -15 -48 -261 -947 -279 -1020 -16 -66 -5 -73 122 -73 58 0 112 4
119 9 7 4 17 23 22 42 4 19 19 75 33 124 14 50 41 151 61 225 21 74 48 173 61
220 13 47 42 153 65 235 23 83 48 174 56 203 l15 52 57 0 c32 0 65 6 74 13 20
15 58 136 58 183 0 23 -6 37 -19 44 -30 15 -473 13 -494 -2z m483 -35 c0 -4
-9 -42 -21 -85 l-21 -78 -80 0 c-47 0 -77 -4 -73 -9 3 -6 -10 -65 -29 -133
-32 -113 -128 -463 -146 -533 -35 -135 -114 -413 -121 -427 -8 -15 -24 -18
-95 -18 -64 0 -86 3 -90 14 -3 8 25 124 61 258 37 134 71 257 75 273 4 17 31
116 60 220 29 105 60 219 70 255 10 36 21 73 25 83 7 17 2 18 -64 16 -39 -1
-74 0 -77 4 -3 3 9 42 26 86 l33 81 233 0 c129 0 234 -3 234 -7z"/>
<path d="M1908 3393 c-30 -7 -39 -62 -38 -228 1 -88 1 -164 0 -170 0 -10 -520
-10 -520 0 0 3 9 38 20 77 24 87 24 83 4 102 -12 12 -38 16 -114 16 -112 0
-111 0 -160 -85 -17 -30 -36 -53 -41 -50 -5 4 -9 28 -9 54 0 72 -15 81 -132
81 -64 0 -99 -4 -106 -12 -6 -7 -36 -107 -67 -223 -31 -115 -88 -327 -127
-470 -39 -143 -73 -272 -75 -288 -9 -48 9 -57 116 -57 53 0 102 4 110 9 13 8
26 52 87 280 13 52 27 97 29 100 3 2 16 -1 29 -8 13 -8 29 -10 35 -7 15 10 14
-11 -5 -83 -23 -93 -16 -101 100 -101 75 0 98 4 114 18 21 17 34 58 109 354
21 81 41 148 46 148 4 0 7 -42 7 -94 0 -68 4 -97 14 -105 10 -8 88 -11 275 -9
144 2 261 1 261 -2 0 -3 1 -66 3 -141 1 -98 6 -141 16 -152 11 -14 35 -17 148
-17 74 0 143 5 154 10 17 10 19 22 19 131 0 66 3 119 8 117 4 -1 41 -39 82
-83 221 -238 259 -275 288 -275 38 0 52 17 52 62 l0 38 353 0 c261 0 356 3
365 12 9 9 15 9 24 0 9 -9 201 -12 803 -12 755 0 793 1 808 18 15 17 17 63 17
462 0 396 -2 446 -17 462 -15 17 -39 18 -289 18 l-273 0 -11 40 c-6 22 -14 40
-17 40 -4 0 -29 -19 -56 -42 l-49 -41 -168 2 c-165 2 -168 2 -184 -21 -14 -20
-16 -60 -16 -303 l1 -280 -25 -3 -26 -3 0 290 c0 250 -2 292 -16 305 -12 12
-37 16 -104 16 -78 0 -91 -2 -100 -19 -6 -12 -10 -128 -10 -305 l0 -286 -30 0
-30 0 0 293 c0 215 -3 296 -12 305 -16 16 -180 16 -196 0 -8 -8 -15 -8 -25 0
-18 15 -1014 16 -1037 2 -12 -7 -16 -38 -20 -134 l-5 -124 -165 181 c-160 175
-186 198 -222 190z m223 -247 c107 -118 197 -215 202 -215 4 -1 7 71 7 159 l0
160 130 0 130 0 0 -489 c0 -290 -4 -492 -9 -496 -5 -3 -99 90 -208 206 l-198
211 -3 -156 -3 -156 -134 0 -135 0 0 488 c0 269 3 492 7 495 3 4 9 7 13 7 3 0
94 -96 201 -214z m1209 -31 l0 -135 -210 0 c-179 0 -210 -2 -210 -15 0 -12 32
-15 208 -17 l207 -3 3 -137 3 -138 -212 0 c-164 0 -210 -3 -206 -12 3 -10 55
-13 208 -15 l204 -2 3 -135 3 -136 -346 0 -345 0 0 440 0 440 345 0 345 0 0
-135z m1630 0 l0 -135 -211 0 c-186 0 -210 -2 -207 -16 3 -13 31 -16 208 -17
l205 -2 3 -287 2 -288 -355 0 -355 0 0 130 c0 102 3 132 14 136 7 3 107 6 221
7 156 2 209 5 212 15 4 9 -43 12 -211 12 l-216 0 0 290 0 290 345 0 345 0 0
-135z m-1130 63 l0 -33 -75 0 c-75 0 -75 0 -75 27 0 27 1 27 73 31 39 1 73 4
75 5 1 1 2 -13 2 -30z m-285 -8 c0 -18 -5 -24 -17 -22 -28 4 -37 -32 -29 -115
0 -6 11 -13 24 -15 17 -2 23 -11 25 -35 3 -29 1 -32 -30 -35 l-33 -3 0 -210 0
-210 140 0 140 0 0 210 0 210 -42 3 c-41 3 -43 4 -43 37 l0 33 75 4 75 3 0
-42 c0 -23 -4 -45 -10 -48 -5 -3 -10 -22 -10 -41 0 -19 5 -34 10 -34 6 0 10
-18 10 -39 0 -22 -4 -43 -10 -46 -5 -3 -10 -21 -10 -40 0 -19 5 -37 10 -40 6
-3 10 -17 10 -31 0 -23 3 -24 60 -24 55 0 61 2 70 25 9 24 12 25 105 25 l96 0
-3 48 -3 47 -97 3 -98 3 0 29 0 30 101 0 100 0 -3 48 -3 47 -97 3 -98 3 0 34
0 35 85 0 c47 0 86 3 86 8 7 33 5 90 -3 105 -8 16 -21 18 -86 16 -77 -2 -77
-2 -80 25 l-3 27 118 -3 118 -3 3 -382 2 -383 -385 0 -385 0 0 378 c0 208 3
382 7 386 4 4 30 6 58 4 46 -3 50 -5 50 -28z m-2534 -125 c6 -55 12 -102 14
-103 3 -4 19 20 106 161 l29 47 90 0 c50 0 90 -4 90 -9 0 -9 -19 -80 -132
-491 -27 -102 -56 -205 -62 -230 l-12 -45 -85 -5 c-46 -3 -86 -4 -88 -3 -5 4
14 83 53 228 14 49 23 91 21 93 -2 2 -25 -28 -51 -67 -26 -39 -53 -71 -60 -71
-9 0 -15 23 -20 70 -4 39 -10 72 -14 75 -4 2 -38 -109 -75 -248 -37 -139 -72
-258 -78 -264 -15 -20 -156 -17 -163 2 -6 14 19 120 62 265 7 25 36 133 64
240 29 107 62 233 75 280 13 47 28 106 35 132 l12 47 82 3 c44 2 84 1 88 -2 4
-3 12 -50 19 -105z m839 -230 l0 -135 -252 2 -253 3 -3 119 c-1 66 0 126 2
133 4 10 59 13 256 13 l250 0 0 -135z m1830 -185 c0 -6 -28 -10 -65 -10 -37 0
-65 4 -65 10 0 6 28 10 65 10 37 0 65 -4 65 -10z"/>
<path d="M4303 3155 c-4 -13 12 -36 65 -87 39 -38 76 -67 81 -64 13 8 35 110
28 129 -4 10 -28 17 -73 22 -37 4 -73 9 -81 12 -7 3 -16 -3 -20 -12z"/>
<path d="M3977 2624 c-4 -4 -40 -8 -80 -8 -68 -1 -72 -2 -75 -25 -2 -12 -1
-34 2 -47 l7 -24 167 2 167 3 0 50 0 50 -90 3 c-50 1 -94 -1 -98 -4z"/>
<path d="M1458 2573 c-201 -222 -369 -377 -470 -437 -24 -14 -58 -48 -77 -75
l-34 -51 95 -157 95 -158 39 2 c37 3 44 -2 129 -87 l90 -90 53 26 c34 16 52
31 52 43 0 9 -25 53 -55 96 -30 44 -55 84 -55 90 0 22 257 119 470 177 58 16
86 28 88 39 2 9 -22 58 -52 108 -31 51 -56 97 -56 104 0 7 9 18 20 25 11 7 20
16 20 21 0 5 -23 48 -52 96 -52 87 -55 89 -100 70 -12 -5 -28 14 -71 87 -76
129 -76 129 -129 71z m195 -290 c81 -137 147 -252 148 -258 0 -5 -21 -16 -48
-24 -118 -34 -317 -103 -388 -136 -42 -19 -81 -33 -85 -30 -14 8 -182 295
-178 304 2 5 41 42 88 83 47 41 135 127 195 191 61 64 112 117 115 117 3 0 72
-111 153 -247z m-517 -328 c80 -135 98 -185 62 -173 -7 3 -53 71 -102 152 -69
116 -86 150 -75 157 8 5 17 9 21 9 4 0 46 -65 94 -145z m-84 -61 c43 -72 73
-133 68 -138 -4 -4 -13 -5 -19 -2 -16 10 -151 243 -151 261 0 36 29 2 102
-121z m263 -221 c33 -47 43 -69 36 -76 -8 -8 -30 7 -76 53 l-65 65 22 17 c12
9 26 14 30 12 4 -2 28 -34 53 -71z"/>
</g>
</svg>
